<mxfile host="app.diagrams.net" modified="2023-11-14T23:26:08.392Z" agent="Mozilla/5.0 (Windows NT 10.0; Win64; x64) AppleWebKit/537.36 (KHTML, like Gecko) Chrome/118.0.0.0 Safari/537.36 OPR/104.0.0.0" etag="Dt4fJ1hdxbDoblVh2qus" version="22.1.1" type="device">
  <diagram name="Page-1" id="HuLZUS_MtafQWuVIGs-f">
    <mxGraphModel dx="1694" dy="932" grid="1" gridSize="10" guides="1" tooltips="1" connect="1" arrows="1" fold="1" page="1" pageScale="1" pageWidth="850" pageHeight="1100" math="1" shadow="0">
      <root>
        <mxCell id="0" />
        <mxCell id="1" parent="0" />
        <mxCell id="kumsZ22l46MUKjzMHWnr-16" value="" style="rounded=0;whiteSpace=wrap;html=1;strokeColor=none;" vertex="1" parent="1">
          <mxGeometry x="130" y="120" width="700" height="530" as="geometry" />
        </mxCell>
        <mxCell id="kumsZ22l46MUKjzMHWnr-1" value="" style="shape=image;verticalLabelPosition=bottom;labelBackgroundColor=default;verticalAlign=top;aspect=fixed;imageAspect=0;image=data:image/png,iVBORw0KGgoAAAANSUhEUgAAAjAAAAGkCAIAAACgjIjwAAAACXBIWXMAAA7EAAAOxAGVKw4bAAAAB3RJTUUH5wkbFTIUoNrS4gAAACR0RVh0U29mdHdhcmUATUFUTEFCLCBUaGUgTWF0aFdvcmtzLCBJbmMuPFjdGAAAACJ0RVh0Q3JlYXRpb24gVGltZQAyNy1TZXAtMjAyMyAxODo1MDoxOdRkE8EAABxISURBVHic7d1PbBznfcbxMaPCyzpod9ZFwgUKaIhh5ThwD6ozDgQI4EQXprCT+JBDGjhY2ocACVQf3EtiFKEJC06MwI0DCSriQ7J7SuHcIvRARGGXcCA3HsIBjESBZU84sIsMDUO76yK21o0p9jASNeIul7uzM/P++35OoixLL16s+Oy8v0fv3rG7u2sBACDajOgFAABgWQQSAEASBBIAQAq3BdJLL70kah0AAMPdCqTz588/+eSTApcCADDZEcuyer3es88+u7a2dtddd4leDwDAUDOWZT3//PO1Wu2ZZ54RvRgAgLmOWJb1ne98Z2ZmZmNjY8Sv+9rXvvbKK6+UtSpglK1TZ/7qf16++8p/il4IgNw88MADRyzLmpk5vGv3yiuvvP7668UvSXP33HMP2zi9O/5l/e//8ZH/uvBvoheiPF6QuWAbc3HPPfdQ+4ZimkE8e/VK1O2LXgiAnBFIUMxG2Pvrt//bsSvtsCt6LQDyRCBBMc0gnu1cWXTtVrAtei0A8nRE9ALMcvr0adFLUFsziJe9+j84//QFr/65f39V9HKUxwsyF2xjXu4Y87ZvpnaQwaP/8fujduWppXnLsj53/tWVpXnftUUvCkAOKDVAMe2wu+zVkx87tdn2mz2x6wGQIwIJKok6fadWSX7c8OY26DUAGiGQoIxkgLT3pWPPUv4GdEIgQRkbYW/Rre596dQqlL8BnRBIUEY77O6rMCy6NmMkQBsEEtTQDGLHruwNkBL+QrW1GYtaEoB8EUhQQ9TpO7XZfT/pu3bU6XNqB+iBQIIaWptxw5sb/HnfrUYdqg2ADggkqCHq9If+G9iVpflWwKkdoAMCCQrYV/hOo/wNaINAggL2Fb7TKH8D2iCQoIDBwnca5W9ADwQSZNcOu+kbgwb5C1XuEAI0QCBBdlGnf9AAKeHYs+2QJyRAeQQSZNcK4oMGSAmnVvHdKmMkQHUEEmTXDnujn5Asy2p49dW1rXLWA6AgBBKkNqLwnea7NuVvQHUEEqQ2ovCdRvkb0ACBBKmNLnynUf4GVEcgQWqjC99plL8B1RFIkNeYA6QEdwgBqiOQIK8xB0gJxkiA6ggkyGuiJyTLshZduxVsF7ceAIUikCCpSdPIsqxlr84TEqAuAgmSmui8LsGpHaA0AgmSGr/wnebUZil/A4oikCCp8QvfaQ1vjvI3oCgCCTLKMEBKUP4G1EUgQUYZBkgJxkiAuggkyKgZxBkGSAnuEAIURSBBOsl5XYYBUmLZq7c243yXBKAEBBKkszHdx78mScapHaAcAgnSaYfdhjc3ze/g2BVO7QDlEEiQTtTpZx4gJVaW5il/A8ohkCCXzIXvNMrfgIoIJMglc+E7jfI3oCICCXLJdmPQIMrfgHIIJEikGcTZbgwa5C9UKX8DaiGQIJfpB0gJx56NOv2owyQJUAaBBIm0gnj6AVLCqVV8txp1r+XyuwEoAYEEibTDXl5PSJZlNbz66tpWXr8bgKIRSJBFLoXvNN+1KX8DCiGQIItcCt9plL8BtRBIkEVehe80yt+AQggkyCKvwneav1DlDiFAFQQSpJD7ACnBHUKAQggkSCHHwncaYyRAIQQSpJBv4Tut4dVbwXYRvzOAfBFIEK+g87qE79o8IQFKIJAgXu6F7zRO7QBVEEgQr4jCdxrlb0AJBBLEK6LwnUb5G1ACgQTBCh0gJSh/A0ogkCBYoQOkBGMkQAkEEgRrBnGhA6TEomtT/gYkRyBBpOS8rtABUmLZq/OEBEiOQIJIG2HvqF14GlmWlWQemQTIjECCSO2w6y8UO0Da49gVyt+AzAgkiBR1+iUMkBIrS/OUvwGZEUgQpoTCdxrlb0ByBBKEKaHwnUb5G5AcgQRhir4xaBB3CAEyI5AgRjOIrZvlt9L4C9XWZlzmnwhgfAQSxCizzrDHsWejTj/qMEkCZEQgQYzWZtzw5kr+Q51axXerUfdayX8ugHEQSBBDyBOSZVkrS/Ora1vl/7kADkUgQYCSC99plL8BaRFIEKDkwnca5W9AWgQSBCi/8J1G+RuQE4GEsiU9t5IL32l8gCwgJwIJZWuHXVEDpARjJEBOBBLK1gpiUQOkBGMkQE4EEsrWDntin5Asy2p4dcrfgGwIJJRKYOE7zXdtTu0A2RBIKJXAwncap3aAhAgklEps4TuN8jcgGwIJpRJb+E6j/A3IhkBCeSQZICUofwOyIZBQHkkGSAnGSIBsCCSUpxnEkgyQEouu3Qq2Ra8CwA0EEkqSnNdJMkBKLHt1npAAeRBIKMlG2DtqS5RGFqd2gGQIJJRE+BV2Qzm1WcrfgCQIJJREnsJ3WsObo/wNSIJAQhmkKnynUf4G5EEgoQxSFb7TGCMB8iCQUAZ5bgwaxB1CgCQIJBSuGcSOXZFwgJTwF6qtzVj0KgAQSChe1Ok7tVnRqziQ79pRp8+pHSAcgYTCtTbjhjcnehWj+G416lBtAAQjkFC4qNOXdoCUWFmabwWc2gGCEUgolrSF7zTK34AMCCQUS9rCdxrlb0AGBBKKJXPhO43yNyAcgYQCNYNYzhuDBvEBsoBwBBKKJf8AKeHYs+2QJyRAJAIJBWoFsfwDpIRTq/hulTESIBCBhAK1w54qT0iWZTW8+uraluhVAOYikFAUJQrfab5rU/4GBCKQUBQlCt9plL8BsQgkFEWVwnca5W9AIAIJRVGl8J1G+RsQiEBCIZQbICW4QwgQiEBCIZQbICUYIwECEUgohKJPSJZlLbp2K9gWvQrARAQS8qduGlmWtezVeUIChCCQkD9Fz+sSnNoBohBIyJ+Khe80pzZL+RsoH4GE/KlY+E5reHOUv4HyEUjImdIDpATlb0AIAgk5U3qAlGCMBAhBICFnzSBWeoCU4A4hoHwEEvKUnNcpPUBKLHv11mYsehWAWQgk5GlDlw9dTTKVUzugTAQS8tQOuw1vTvQq8uHYFU7tgDIRSMhT1OlrMEBKrCzNU/4GykQgITcaFL7TKH8DJSOQkBsNCt9plL+BkhFIyI3qNwYNovwNlIlAQj6aQaz6jUGD/IUq5W+gNAQScqPTACnh2LNRpx91mCQBZSCQkI9WEGtT+N7j1Cq+W42610QvBDACgYR8tMOeZgOkRMOrr65tiV4FYAQCCTnQrPCd5rs25W+gHAQScqBZ4TuN8jdQGgIJOdCv8J1G+RsoB4GEHOhX+E7zF6rcIQSUgEDCtDQeICW4QwgoB4GEabWCWNcBUoIxElAOAgnTaoc9vZ+QLMtqePVWsC16FYDmCCRMRfvzuoTv2jwhAUUjkDAVjQvfaZzaASUgkDAVvQvfaZS/gaIRSJiK3oXvNMrfQNEIJGRnyAApQfkbKBqBhOwMGSAlGCMBRSOQkF0ziA0ZICUWXZvyN1AcAgkZJed1hgyQEstenSckoDgEEjLaCHtHbYPSyLKsJH3JJKAgBBIyaoddcxoNexy7QvkbKAiBhIzMKXynrSzNU/4GCkIgIQujCt9plL+B4hBIyMKownca5W+gOAQSsjDnxqBB3CEEFIRAwsSaQWzdrJwZyF+otjZj0asANEQgYWJRp2/s45GVjJE6/ajDJAnIGYGEibU244Y3J3oVwji1iu9Wo+410QsBdEMgYWKGPyFZlrWyNL+6tiV6FYBuCCRMxtjCdxrlb6AIBBImY2zhO43yN1AEAgmTMbnwnUb5G8gdgYQJJO0yYwvfaXyALJA7AgkTMPNC1aEce7Yd8oQE5IlAwgRaQcwAKZGUvxkjATkikDCBdtjjCWlPw6tT/gZyRCBhXBS+9/Fdm/I3kCMCCeOi8L0P5W8gXwQSxkXhexDlbyBHBBLGReF7EOVvIEcEEsbCAGko7hACckQgYSwMkIZijATkiEDCWJpBzABpqEXXbgXbolcB6IBAwuGS8zoGSEMte3WekIBcEEg43EbYO2qTRsNxagfkhUDC4bjCbjSnNkv5G5gegYTDUfgereHNUf4Gpkcg4RAUvg9F+RvIBYGEQ1D4PhRjJCAXBBIOwY1B4+AOIWB6BBJGSf75EQOkQ/kL1dZmLHoVgNoIJIyywYeijsd37ajT59QOmAaBhFHaYbfhzYlehRp8txp1qDYA2RFIGCXq9BkgjWllab4VcGoHZEcg4UAUvidC+RuYEoGEA1H4ngjlb2BKBBIOROF7UpS/gWkQSBiuGcTcGDQpPkAWmAaBhAMxQJqUY8+2KcoDWRFIGK4VxAyQJuXUKr5bZYwEZEMgYbh22OMJKYOGV19d2xK9CkBJBBKGoPCdme/alL+BbAgkDEHhOzPK30BmBBKGoPA9DcrfQDYEEoag8D0Nyt9ANgQS9mOANCXuEAKyIZCwHwOkKTFGArIhkLAfT0jTW3TtVrAtehWAYggk3IY0ysWyV+cJCZgUgYTbcF6XC07tgAwIJNyGwndeKH8DkyKQcBsK33mh/A1MikDCLQyQckT5G5gUgYRbGCDliDESMCkCCbc0g5gBUo4YIwETIZBwQ3JexwApR8tevbUZi14FoAwCCTds8FGneUvSnVM7YEwEEm5oh92GNyd6Fbpx7AqndsCYCCTcEHX6DJByt7I0T/kbGBOBBMui8F0Yyt/A+AgkWBaF78JQ/gbGRyDBsrgxqEiUv4ExEUiwmkHMjUHF8ReqlL+BcRBIsCzLYoBUHMeejTr9qMMkCTgEgQSrFcQUvovj1Cq+W42610QvBJAdgQSrHfYYIBWq4dVX17ZErwKQHYFkOgrfJfBdm/I3cCgCyXQUvktA+RsYB4FkOgrf5aD8DRyKQDJa0v6i8F0CPkAWOBSBZLR22GWAVA7uEAIORSAZrRXEDJDKwRgJOBSBZLR22OMJqTQNr94KtkWvApAXgWQuCt8l812bJyRgBALJXBS+S8apHTAagWQuCt/lo/wNjEAgmYvCd/kofwMjEEiGYoAkBOVvYAQCyVAMkIRgjASMQCAZqhnEDJCEWHRtyt/AUASSiZLzOgZIQix7dZ6QgKEIJBNthL2jNmkkRvI+gEwCBhFIJuIKO7Ecu0L5GxhEIJmIwrdYK0vzlL+BQQSScSh8C0f5GxiKQDIOhW/hKH8DQxFIxuHGIBlwhxAwiEAySzOIrZtFLwjkL1Rbm7HoVQByIZDMEnX6PB7JwHft5PPjRS8EkAiBZJbWZtzw5kSvApZlWb5bjbrXRK8CkAiBZBaekOSxsjS/urYlehWARAgkg1D4lgrlb2AfAskgFL6lQvkb2IdAMgiFb9lQ/gbSCCRTJJ0uCt9S4QNkgTQCyRRcqCohx55thzwhATcQSKZoBTEDJNk4tYrvVhkjAQkCyRTtsMcTkoQaXp3yN5AgkIxA4VtavmtT/gYSBJIRKHxLi/I3sIdAMgKFb5lR/gYSBJIRKHzLjPI3kCCQ9McASXLcIQQkCCT9MUCSHGMkIEEg6a8ZxAyQJLfo2q1gW/QqAMEIJM0l53UMkCS37NV5QgIIJM1xXqcETu0Ai0DSHoVvVTi1WcrfMByBpDkK36poeHOUv2E4AklnFL4VQvkbIJB0xgBJIYyRAAJJZwyQ1MIdQjAcgaSt5J8fMUBSiL9QbW3GolcBCEMgaWuDjyJVje/aUafPqR2MRSBpqx12G96c6FVgMr5bjTpUG2AoAklbUafPAEk5K0vzrYBTOxiKQNIThW9FUf6GyQgkPVH4VhTlb5iMQNIThW91Uf6GsQgkDTWDmBuD1EX5G8YikPTEAEldjj1L0Q5mIpA01ApiBkjqcmoV360yRoKBCCQNtcMeT0hKa3j11bUt0asAykYg6YbCtwZ816b8DQMRSLqh8K0Byt8wE4GkGwrfeqD8DQMRSLqh8K0Hf6HKB8jCNASSVhggaYM7hGAgAkkrDJC0wRgJBiKQtMITkk4WXbsVbIteBVAeAkkfpJFmlr06T0gwCoGkD87rNMOpHUxDIOmDwrd+KH/DKASSPih864fyN4xCIGmCAZKWKH/DKASSJhggaYkxEoxCIGmiGcQMkLTEGAnmIJB0kJzXMUDS0rJX5wNkYQgCSQcbIe+gtZW8z+DUDiYgkHTQDrsNb070KlAUx65wagcTEEg6iDp9BkgaW1map/wNExBIyqPwrT3K3zAEgaQ8Ct/ao/wNQxBIyuPGIBNQ/oYJCCS1NYPYulnEgsb8hSrlb2iPQFIej0cmcOzZqNOPOkySoDMCSW2tIKbwbQKnVvHdatS9JnohQIEIJLW1wx5PSIZoePXVtS3RqwAKRCApjMK3UXzXpvwNvRFICqPwbRTK39AegaQwCt+mofwNvRFIqko6VxS+jcIHyEJvBJKq2mGXAZJpuEMIeiOQVNUKYgZIpmGMBL0RSKpqhz2ekAzU8OqtYFv0KoBCEEhKovBtLN+1eUKCrggkJVH4NhandtAYgaQkCt8mo/wNXRFISqLwbTLK39AVgaQeBkiGo/wNXRFI6mGAZDjGSNAVgaSeZhAzQDLcomtT/oZ+CCTFJOd1DJAMt+zVeUKCfggkxWyEvaM2aWS65B0JmQTNEEiK4Qo7JBy7QvkbmiGQFEPhG4mVpXnK39AMgaQSCt/YQ/kb+iGQVELhG3sof0M/BJJKuDEIadwhBM0QSMpoBrF1s14FWJblL1Rbm7HoVQC5IZCUEXX6PB4hzXftqNPn1A7aIJCU0dqMG96c6FVALj4zRWiEQFIGT0gYtLI0v7q2JXoVQD4IJDVQ+MZQlL+hEwJJDRS+MRTlb+iEQFIDhW8chPI3tEEgKaAddrkxCAfhA2ShDQJJAVGnzwAJB3Hs2XbIExJ0QCApoBXEDJBwEKdW8d0qYyRogEBSQDvs8YSEERpenfI3NEAgyY7CNw7luzblb2iAQJIdhW8civI39EAgyY7CN8ZB+RsaIJBkR+Eb46D8DQ0QSFJjgIQxcYcQNEAgSY0BEsbEGAkaIJCk1gxiBkgY06Jrt4Jt0asAsiOQ5JWc1zFAwpiWvTpPSFAagSQvzuswEU7toDoCSV4UvjEppzZL+RvqIpDkReEbk2p4c5S/oS4CSVIUvpEB5W8ojUCSFAMkZMAYCUojkCTFAAnZcIcQ1EUgySj550cMkJCBv1BtbcaiVwFkQSDJaIMPAEVWvmtHnT6ndlARgSSjdthteHOiVwFV+W416lBtgHoIJBlFnT4DJGS2sjTfCji1g3oIJOlQ+MaUKH9DUQSSdCh8Y0qUv6EoAkk6FL4xPcrfUBGBJJdmEHNjEKZH+RsqIpCkwwAJ03PsWYp2UA6BJJdWEDNAwvScWsV3q4yRoBYCSS7tsMcTEnLR8Oqra1uiVwFMgECSCIVv5Mh3bcrfUAuBJBEK38gR5W8oh0CSCIVv5IvyN9RCIEmEwjfy5S9U+QBZKIRAkgUDJOSOO4SgFgJJFgyQkDvGSFALgSQLnpBQhEXXbgXbolcBjIVAkgJphIIse3WekKAKAkkKnNehIJzaQSEEkhQofKM4lL+hCgJJChS+URzK31AFgSQeAyQUivI3VEEgiccACYVijARVEEjiNYOYARIKRfkbSiCQBEvO6xggoVCUv6EEAkmwjZD6EwqXvOMhkyA5AkmwdthteHOiVwH9OXaF8jckRyAJFnX6DJBQgpWlecrfkByBJBKFb5SG8jfkRyCJROEbpaH8DfkRSCJxYxDKxB1CkByBJEwziK2b9SegBP5CtbUZi14FcCACSRjqDCiZY89GnX7UYZIESRFIwmxQ+Ea5nFrFd6tR95rohQDDEUjCtMMeT0goWcOrr65tiV4FMByBJAaFbwjhuzblb0iLQBKDwjeEoPwNmRFIYlD4hiiUvyEtAkmApOlE4RtC8AGykBaBJEA77DJAgijcIQRpEUgCtIKYARJEYYwEaRFIArTDHk9IEKjh1fkAWUiIQCobhW8I57s2T0iQEIFUqrNnz1L4nt7Zs2dFL0Fte6d27GQu2Ma8EEilOnfuHIXv6Z07d070EpSXlL/ZyVywjXm5EUhvv/32xYsXX3/9dbGrMQGFb8iA8jckNGNZ1oULF77yla+sra194xvf+OEPfyh6STr73789wQAJMqD8DQkd2dnZWVlZefHFFxcWFjqdzqlTp770pS85jiN6YXr64O6/Y4AEGSRjpDfvPiZ6IcAtd6yvrz/99NPr6+vJ148//vgDDzzwyCOP7Pt1f/OFJ0pfm4auHntofv1f/+KDq6IXAlhXjz34wd3H/vLqFdELAW440uv1PvWpT+19/fGPf/zKlSEv0NOn/7nEVWnLX6j6z10SvQrAsiwr6vTbYZfP64M8juzs7MzM3OrazczMXL9+ffDXPbU0X+KqABTOqVWWa0w0IZGZO++8c2dnZ+/r69evHzlyROCCAABmmvnEJz7x29/+du/rbrd7//33C1wQAMBMM57nWZa1sbFhWdYbb7xx6dKlEydOiF4VAMA4d+zu7v76179+4oknFhYWfve73505c+bzn/+86FUBAIxzx+7urug1AADAXXYAADkQSAAAKYwKpD//+c8XL14c+p/efPPNixcvvvrqq8WsSisjtjHx0ksvlbYYzRy6t0ibaLt4WY4w5k7yfXJSo2ZIvV7vs5/97OAV4GfOnFlfX7///vuvXLly1113/eQnP7nzzjsLXqfCDtrGxPnz53/605/ylz+b0XuLfcbfLl6Wo42zk3yfzGJ3QpcvX77vvvu63W7y5UMPPfSzn/1s0t8Eu7u73W73W9/61vHjx0+ePCl6LTDUCy+88Nprr6V/hpdlNvt2ku+T2dw4sltfX//2t7+dXBr0q1/96sknn7x+/foHH3xw+vTpfQFWrVZ/9KMfVas3rqyen5//4x//WGaCymz8bbQs6/nnn6/Vas8880zpy1TSRHsLa9iO/elPf9q3XZubm++88076Z3hZDsqwk3yfzCjJpZ2dnYcffvjs2bNXr149ceLEL3/5y93d3W63e+zYsRFpFkXRfffdd/ny5TKiUwUTbePOzs7u7m673eat6DiyvURNNrhje9v10Ucfvf/++++///5jjz124cKF5Md7/9cuL8vbZdvJPXyfHN+Na+tmZmZ+8IMfPPzww5cuXXrwwQdPnTp1aJK98847y8vL3/zmN++9996CQ1MZE21j+k5bHCrDS9RwgzvW6/WS//Tyyy8//vjjlmV9+OGHm5ubH/vYx6rVavIZNLwsB2XbyQTfJyeTTqfV1dVPf/rT7733XvLl3ruAp59++vjx4+lj5ddee+3EiRM//vGPS85PJYy/jbu8FZ3QQXuLg6R3bHC7vv71r//iF78Y/L94WQ7KsJN8n5zUrXdDf/jDH37+85+fPHnyu9/97r7Q+upXv3ru3Llz584999xzlmVdunTpsccee+qppx599NFSw1MF428jJjVibzEUO5aXDDvJ98ksklza2dn54he/+MILL7z33nsnT55cW1vbPeDt51tvvXX8+PH19fX/u+mjjz4qO0ZlNf427uGt6Jgy7K3hBndscLva7fZbb701+P/yskzLsJN8n8zmRiB9//vf//KXv5z8eH19/TOf+cy777479G/79773vWO3W11dLXXJEht/G/fwN39MGfbWcIM79uGHH465Xbws0zLsJN8nsxn1D2PffffdxcXFy5cvl/nEph+2sTjs7UTYrrywkwU58MNh4zh+8cUXP/nJT5a5Gv2wjcVhbyfCduWFnSzOgRXP3/zmN2EYPvvss2WuRj9sY3HY24mwXXlhJ4vz/5/bNzHFiKQ8AAAAAElFTkSuQmCC;" vertex="1" parent="1">
          <mxGeometry x="145" y="130" width="666.66" height="500" as="geometry" />
        </mxCell>
        <mxCell id="kumsZ22l46MUKjzMHWnr-3" value="" style="rounded=0;whiteSpace=wrap;html=1;labelBorderColor=#FFFFFF;strokeColor=none;" vertex="1" parent="1">
          <mxGeometry x="145" y="610" width="675" height="40" as="geometry" />
        </mxCell>
        <mxCell id="kumsZ22l46MUKjzMHWnr-4" value="" style="rounded=0;whiteSpace=wrap;html=1;labelBorderColor=#FFFFFF;strokeColor=none;direction=south;" vertex="1" parent="1">
          <mxGeometry x="130" y="120" width="30" height="530" as="geometry" />
        </mxCell>
        <mxCell id="kumsZ22l46MUKjzMHWnr-2" value="&lt;svg style=&quot;vertical-align: -0.666ex; font-size: 19px;&quot; xmlns:xlink=&quot;http://www.w3.org/1999/xlink&quot; viewBox=&quot;0 -442 1850 736.2&quot; role=&quot;img&quot; height=&quot;1.666ex&quot; width=&quot;4.186ex&quot; xmlns=&quot;http://www.w3.org/2000/svg&quot;&gt;&lt;defs style=&quot;font-size: 19px;&quot;&gt;&lt;path d=&quot;M52 289Q59 331 106 386T222 442Q257 442 286 424T329 379Q371 442 430 442Q467 442 494 420T522 361Q522 332 508 314T481 292T458 288Q439 288 427 299T415 328Q415 374 465 391Q454 404 425 404Q412 404 406 402Q368 386 350 336Q290 115 290 78Q290 50 306 38T341 26Q378 26 414 59T463 140Q466 150 469 151T485 153H489Q504 153 504 145Q504 144 502 134Q486 77 440 33T333 -11Q263 -11 227 52Q186 -10 133 -10H127Q78 -10 57 16T35 71Q35 103 54 123T99 143Q142 143 142 101Q142 81 130 66T107 46T94 41L91 40Q91 39 97 36T113 29T132 26Q168 26 194 71Q203 87 217 139T245 247T261 313Q266 340 266 352Q266 380 251 392T217 404Q177 404 142 372T93 290Q91 281 88 280T72 278H58Q52 284 52 289Z&quot; id=&quot;MJX-2-TEX-I-1D465&quot; style=&quot;font-size: 19px;&quot;&gt;&lt;/path&gt;&lt;path d=&quot;M297 596Q297 627 318 644T361 661Q378 661 389 651T403 623Q403 595 384 576T340 557Q322 557 310 567T297 596ZM288 376Q288 405 262 405Q240 405 220 393T185 362T161 325T144 293L137 279Q135 278 121 278H107Q101 284 101 286T105 299Q126 348 164 391T252 441Q253 441 260 441T272 442Q296 441 316 432Q341 418 354 401T367 348V332L318 133Q267 -67 264 -75Q246 -125 194 -164T75 -204Q25 -204 7 -183T-12 -137Q-12 -110 7 -91T53 -71Q70 -71 82 -81T95 -112Q95 -148 63 -167Q69 -168 77 -168Q111 -168 139 -140T182 -74L193 -32Q204 11 219 72T251 197T278 308T289 365Q289 372 288 376Z&quot; id=&quot;MJX-2-TEX-I-1D457&quot; style=&quot;font-size: 19px;&quot;&gt;&lt;/path&gt;&lt;path d=&quot;M84 237T84 250T98 270H679Q694 262 694 250T679 230H98Q84 237 84 250Z&quot; id=&quot;MJX-2-TEX-N-2212&quot; style=&quot;font-size: 19px;&quot;&gt;&lt;/path&gt;&lt;path d=&quot;M213 578L200 573Q186 568 160 563T102 556H83V602H102Q149 604 189 617T245 641T273 663Q275 666 285 666Q294 666 302 660V361L303 61Q310 54 315 52T339 48T401 46H427V0H416Q395 3 257 3Q121 3 100 0H88V46H114Q136 46 152 46T177 47T193 50T201 52T207 57T213 61V578Z&quot; id=&quot;MJX-2-TEX-N-31&quot; style=&quot;font-size: 19px;&quot;&gt;&lt;/path&gt;&lt;/defs&gt;&lt;g transform=&quot;scale(1,-1)&quot; stroke-width=&quot;0&quot; fill=&quot;currentColor&quot; stroke=&quot;currentColor&quot; style=&quot;font-size: 19px;&quot;&gt;&lt;g data-mml-node=&quot;math&quot; style=&quot;font-size: 19px;&quot;&gt;&lt;g data-mml-node=&quot;msub&quot; style=&quot;font-size: 19px;&quot;&gt;&lt;g data-mml-node=&quot;mi&quot; style=&quot;font-size: 19px;&quot;&gt;&lt;use xlink:href=&quot;#MJX-2-TEX-I-1D465&quot; data-c=&quot;1D465&quot; style=&quot;font-size: 19px;&quot;&gt;&lt;/use&gt;&lt;/g&gt;&lt;g data-mjx-texclass=&quot;ORD&quot; transform=&quot;translate(605,-150) scale(0.707)&quot; data-mml-node=&quot;TeXAtom&quot; style=&quot;font-size: 19px;&quot;&gt;&lt;g data-mml-node=&quot;mi&quot; style=&quot;font-size: 19px;&quot;&gt;&lt;use xlink:href=&quot;#MJX-2-TEX-I-1D457&quot; data-c=&quot;1D457&quot; style=&quot;font-size: 19px;&quot;&gt;&lt;/use&gt;&lt;/g&gt;&lt;g transform=&quot;translate(412,0)&quot; data-mml-node=&quot;mo&quot; style=&quot;font-size: 19px;&quot;&gt;&lt;use xlink:href=&quot;#MJX-2-TEX-N-2212&quot; data-c=&quot;2212&quot; style=&quot;font-size: 19px;&quot;&gt;&lt;/use&gt;&lt;/g&gt;&lt;g transform=&quot;translate(1190,0)&quot; data-mml-node=&quot;mn&quot; style=&quot;font-size: 19px;&quot;&gt;&lt;use xlink:href=&quot;#MJX-2-TEX-N-31&quot; data-c=&quot;31&quot; style=&quot;font-size: 19px;&quot;&gt;&lt;/use&gt;&lt;/g&gt;&lt;/g&gt;&lt;/g&gt;&lt;/g&gt;&lt;/g&gt;&lt;/svg&gt;" style="text;html=1;strokeColor=none;fillColor=none;align=center;verticalAlign=middle;whiteSpace=wrap;rounded=0;fontSize=19;" vertex="1" parent="1">
          <mxGeometry x="260" y="610" width="60" height="40" as="geometry" />
        </mxCell>
        <mxCell id="kumsZ22l46MUKjzMHWnr-6" value="$$x_j$$" style="text;html=1;strokeColor=none;fillColor=none;align=center;verticalAlign=middle;whiteSpace=wrap;rounded=0;fontSize=19;" vertex="1" parent="1">
          <mxGeometry x="395" y="615" width="60" height="30" as="geometry" />
        </mxCell>
        <mxCell id="kumsZ22l46MUKjzMHWnr-7" value="$$x_{j+1}$$" style="text;html=1;strokeColor=none;fillColor=none;align=center;verticalAlign=middle;whiteSpace=wrap;rounded=0;fontSize=19;" vertex="1" parent="1">
          <mxGeometry x="530" y="615" width="60" height="30" as="geometry" />
        </mxCell>
        <mxCell id="kumsZ22l46MUKjzMHWnr-8" value="$$x_{j+2}$$" style="text;html=1;strokeColor=none;fillColor=none;align=center;verticalAlign=middle;whiteSpace=wrap;rounded=0;fontSize=19;" vertex="1" parent="1">
          <mxGeometry x="660" y="615" width="60" height="30" as="geometry" />
        </mxCell>
        <mxCell id="kumsZ22l46MUKjzMHWnr-9" value="$$x_{j-2}$$" style="text;html=1;strokeColor=none;fillColor=none;align=center;verticalAlign=middle;whiteSpace=wrap;rounded=0;fontSize=19;" vertex="1" parent="1">
          <mxGeometry x="140" y="615" width="60" height="30" as="geometry" />
        </mxCell>
        <mxCell id="kumsZ22l46MUKjzMHWnr-10" value="$$0$$" style="text;html=1;strokeColor=none;fillColor=none;align=center;verticalAlign=middle;whiteSpace=wrap;rounded=0;fontSize=19;" vertex="1" parent="1">
          <mxGeometry x="110" y="585" width="60" height="30" as="geometry" />
        </mxCell>
        <mxCell id="kumsZ22l46MUKjzMHWnr-11" value="$$1$$" style="text;html=1;strokeColor=none;fillColor=none;align=center;verticalAlign=middle;whiteSpace=wrap;rounded=0;fontSize=19;" vertex="1" parent="1">
          <mxGeometry x="110" y="130" width="60" height="30" as="geometry" />
        </mxCell>
        <mxCell id="kumsZ22l46MUKjzMHWnr-12" value="" style="endArrow=none;dashed=1;html=1;rounded=0;strokeWidth=2;" edge="1" parent="1">
          <mxGeometry width="50" height="50" relative="1" as="geometry">
            <mxPoint x="420" y="600" as="sourcePoint" />
            <mxPoint x="420" y="150" as="targetPoint" />
          </mxGeometry>
        </mxCell>
        <mxCell id="kumsZ22l46MUKjzMHWnr-13" value="$$I_j$$" style="text;html=1;strokeColor=none;fillColor=none;align=center;verticalAlign=middle;whiteSpace=wrap;rounded=0;fontSize=19;" vertex="1" parent="1">
          <mxGeometry x="448.33" y="570" width="60" height="30" as="geometry" />
        </mxCell>
        <mxCell id="kumsZ22l46MUKjzMHWnr-14" value="$$I_{j-1}$$" style="text;html=1;strokeColor=none;fillColor=none;align=center;verticalAlign=middle;whiteSpace=wrap;rounded=0;fontSize=19;" vertex="1" parent="1">
          <mxGeometry x="320" y="570" width="60" height="30" as="geometry" />
        </mxCell>
        <mxCell id="kumsZ22l46MUKjzMHWnr-17" value="$$x_{j+3}$$" style="text;html=1;strokeColor=none;fillColor=none;align=center;verticalAlign=middle;whiteSpace=wrap;rounded=0;fontSize=19;" vertex="1" parent="1">
          <mxGeometry x="770" y="610" width="60" height="30" as="geometry" />
        </mxCell>
      </root>
    </mxGraphModel>
  </diagram>
</mxfile>
